<?xml version="1.0" encoding="iso-8859-1"?>
<!-- Uploaded to: SVG Repo, www.svgrepo.com, Generator: SVG Repo Mixer Tools -->
<svg height="800px" width="800px" version="1.1" id="Layer_1" xmlns="http://www.w3.org/2000/svg" xmlns:xlink="http://www.w3.org/1999/xlink" 
	 viewBox="0 0 504.32 504.32" xml:space="preserve">
<g transform="translate(1 1)">
	<path style="fill:#7EE1E6;" d="M455.533,123.587c0,0,17.067,28.16,17.067,93.867s-17.067,93.867-17.067,93.867H421.4
		c0,0,8.533-34.987,8.533-93.867s-8.533-93.867-8.533-93.867H455.533z M293.4,123.587v51.2c0,9.387-7.68,17.067-17.067,17.067h-51.2
		c-9.387,0-17.067-7.68-17.067-17.067v-51.2c0-9.387,7.68-17.067,17.067-17.067h51.2C285.72,106.52,293.4,114.2,293.4,123.587z
		 M293.4,21.187V55.32c0,9.387-7.68,17.067-17.067,17.067h-51.2c-9.387,0-17.067-7.68-17.067-17.067V21.187
		c0-9.387,7.68-17.067,17.067-17.067h51.2C285.72,4.12,293.4,11.8,293.4,21.187z M45.933,123.587h34.133
		c0,0-8.533,34.987-8.533,93.867s8.533,93.867,8.533,93.867H45.933c0,0-17.067-28.16-17.067-93.867S45.933,123.587,45.933,123.587z"
		/>
	<path style="fill:#4ea4f5;" d="M455.533,456.387L455.533,456.387c-1.707,4.267-8.533,27.307-8.533,42.667H54.467
		c0-16.213-7.68-39.253-8.533-42.667l0,0c0,0,76.8-25.6,128-25.6c0,0,8.533,34.133,76.8,34.133s76.8-34.133,76.8-34.133
		C378.733,430.787,455.533,456.387,455.533,456.387"/>
	<path style="fill:#7EE1E6;" d="M498.2,499.053H447c0-15.36,6.827-38.4,8.533-41.813h0.853
		C485.4,467.48,498.2,499.053,498.2,499.053z M45.933,456.387c0.853,3.413,8.533,26.453,8.533,42.667h-51.2
		C3.267,499.053,16.067,470.04,45.933,456.387L45.933,456.387z"/>
	<path style="fill:#fcd0bd;" d="M421.4,311.32c-32.427,64-93.867,102.4-170.667,102.4s-138.24-38.4-170.667-102.4
		c17.067-8.533,24.747-36.693,24.747-36.693s14.507-51.2,73.387-51.2s73.387,29.013,73.387,29.013s14.507-29.013,73.387-29.013
		c58.88,0,73.387,51.2,73.387,51.2S404.333,302.787,421.4,311.32"/>
	<path style="fill:#4ea4f5;" d="M314.733,268.653c6.827,0,12.8,5.973,12.8,12.8s-5.973,12.8-12.8,12.8s-12.8-5.973-12.8-12.8
		S307.907,268.653,314.733,268.653z M186.733,268.653c6.827,0,12.8,5.973,12.8,12.8s-5.973,12.8-12.8,12.8
		c-6.827,0-12.8-5.973-12.8-12.8S179.907,268.653,186.733,268.653z"/>
	<path style="fill:#ECF4F7;" d="M208.067,336.92H293.4c0,0-8.533,34.133-42.667,34.133S208.067,336.92,208.067,336.92"/>
	<path style="fill:#4ea4f5;" d="M293.4,174.787v-51.2c0-9.387-7.68-17.067-17.067-17.067h-51.2c-9.387,0-17.067,7.68-17.067,17.067
		v51.2c0,9.387,7.68,17.067,17.067,17.067h51.2C285.72,191.853,293.4,184.173,293.4,174.787 M104.813,274.627
		c0,0-7.68,28.16-24.747,36.693c0,0-8.533-34.987-8.533-93.867s8.533-93.867,8.533-93.867c27.307-52.907,69.12-92.16,128-102.4
		V55.32c0,9.387,7.68,17.067,17.067,17.067h51.2c9.387,0,17.067-7.68,17.067-17.067V21.187c58.88,10.24,100.693,49.493,128,102.4
		c0,0,8.533,34.987,8.533,93.867S421.4,311.32,421.4,311.32c-17.067-8.533-24.747-36.693-24.747-36.693s-14.507-51.2-73.387-51.2
		c-58.88,0-73.387,29.013-73.387,29.013s-14.507-29.013-73.387-29.013C119.32,223.427,104.813,274.627,104.813,274.627"/>
</g>
<path style="fill:#51565F;" d="M499.2,504.32c-2.56,0-4.267-1.707-4.267-4.267c0-0.853,0-14.507-14.507-22.187
	c-1.707-0.853-2.56-3.413-1.707-5.973c0.853-1.707,3.413-2.56,5.973-1.707c19.627,9.387,19.627,29.013,19.627,29.013
	C503.467,502.613,501.76,504.32,499.2,504.32z M448,504.32c-2.56,0-4.267-1.707-4.267-4.267c0-13.653,5.12-31.573,7.68-40.107
	c-16.213-5.12-76.8-23.04-119.467-23.893c-4.267,9.387-20.48,34.133-79.36,34.133s-75.947-24.747-79.36-34.133
	c-43.52,0.853-104.107,18.773-119.467,23.893c2.56,7.68,7.68,26.453,7.68,40.107c0,2.56-1.707,4.267-4.267,4.267
	s-4.267-1.707-4.267-4.267c0-16.213-8.533-40.96-8.533-40.96c0-0.853,0-2.56,0-3.413c0.853-0.853,1.707-1.707,2.56-2.56
	c3.413-0.853,77.653-25.6,129.707-25.6c1.707,0,3.413,1.707,4.267,3.413c0,0,9.387,30.72,72.533,30.72
	c64,0,72.533-30.72,72.533-30.72c0.853-1.707,2.56-3.413,4.267-3.413c51.2,0,126.293,24.747,129.707,25.6
	c2.56,0.853,3.413,3.413,2.56,5.12c0,0-8.533,24.747-8.533,40.96C452.267,502.613,450.56,504.32,448,504.32z M4.267,504.32
	c-2.56,0-4.267-1.707-4.267-4.267c0-0.853,0-19.627,19.627-29.013c1.707-0.853,4.267,0,5.973,1.707c0.853,1.707,0,4.267-1.707,5.973
	C9.386,486.4,9.386,500.054,9.386,500.907C8.533,502.613,6.827,504.32,4.267,504.32z M251.733,418.987
	c-76.8,0-139.947-38.4-174.08-104.96v-0.853c0-1.707-8.533-36.693-8.533-94.72c0-46.08,5.12-77.653,7.68-89.6H50.347
	c-3.413,7.68-15.36,35.84-15.36,89.6c0,63.147,16.213,91.307,16.213,91.307c0.853,1.707,0.853,4.267-1.707,5.973
	c-1.707,0.853-4.267,0.853-5.973-1.707C42.666,313.173,25.6,284.16,25.6,217.6s17.067-94.72,17.92-96.427
	c0.853-0.853,2.56-1.707,3.413-1.707h31.573C108.373,63.147,151.893,28.16,204.8,17.92C206.507,7.68,215.04,0,226.133,0h51.2
	c10.24,0,19.627,7.68,21.333,17.92c52.907,10.24,97.28,45.227,126.293,101.547h31.573c1.707,0,2.56,0.853,3.413,1.707
	c0.853,0.853,17.92,29.867,17.92,96.427s-17.067,94.72-17.92,96.427c-0.853,1.707-3.413,2.56-5.973,1.707
	c-1.707-0.853-2.56-4.267-1.707-5.973c0,0,16.213-28.16,16.213-91.307c0-53.76-11.947-81.92-15.36-89.6h-26.453
	c2.56,11.947,7.68,43.52,7.68,89.6c0,58.027-8.533,93.013-8.533,94.72v0.853C391.68,380.587,328.533,418.987,251.733,418.987z
	 M85.333,310.613c33.28,63.147,93.867,99.84,166.4,99.84c73.387,0,133.973-36.693,166.4-99.84c0.853-4.267,8.533-38.4,8.533-92.16
	s-7.68-87.893-8.533-92.16c-28.16-53.76-69.12-87.893-119.467-98.987V56.32c0,11.947-9.387,21.333-21.333,21.333h-51.2
	c-11.947,0-21.333-9.387-21.333-21.333V27.307c-50.347,10.24-91.307,44.373-119.467,98.987c-0.853,4.267-8.533,38.4-8.533,92.16
	S84.48,306.346,85.333,310.613z M213.333,22.187V56.32c0,6.827,5.973,12.8,12.8,12.8h51.2c6.827,0,12.8-5.973,12.8-12.8V22.187l0,0
	c0-6.827-5.973-12.8-12.8-12.8h-51.2C219.307,9.387,213.333,15.36,213.333,22.187L213.333,22.187z M251.733,376.32
	c-36.693,0-46.933-36.693-46.933-37.547c0-0.853,0-2.56,0.853-3.413s1.707-1.707,3.413-1.707H294.4c1.707,0,2.56,0.853,3.413,1.707
	c0.853,0.853,0.853,2.56,0.853,3.413C298.667,339.627,288.427,376.32,251.733,376.32z M215.04,342.187
	c3.413,8.533,13.653,25.6,36.693,25.6s33.28-17.067,36.693-25.6H215.04z M315.733,299.52c-9.387,0-17.067-7.68-17.067-17.067
	s7.68-17.067,17.067-17.067s17.067,7.68,17.067,17.067S325.12,299.52,315.733,299.52z M315.733,273.92
	c-5.12,0-8.533,3.413-8.533,8.533s3.413,8.533,8.533,8.533c5.12,0,8.533-3.413,8.533-8.533S320.853,273.92,315.733,273.92z
	 M187.733,299.52c-9.387,0-17.067-7.68-17.067-17.067s7.68-17.067,17.067-17.067s17.067,7.68,17.067,17.067
	S197.12,299.52,187.733,299.52z M187.733,273.92c-5.12,0-8.533,3.413-8.533,8.533s3.413,8.533,8.533,8.533
	c5.12,0,8.533-3.413,8.533-8.533S192.853,273.92,187.733,273.92z M105.813,279.893h-0.853c-2.56-0.853-3.413-3.413-2.56-5.12
	c0-0.853,16.213-54.613,77.653-54.613c45.227,0,65.707,17.067,73.387,26.453c7.68-9.387,28.16-26.453,73.387-26.453
	c61.44,0,76.8,53.76,77.653,54.613c0.853,2.56-0.853,4.267-2.56,5.12c-2.56,0.853-4.267-0.853-5.12-2.56
	c-0.853-1.707-14.507-47.787-69.12-47.787c-54.613,0-69.12,26.453-69.12,27.307c-0.853,1.707-2.56,1.707-3.413,2.56
	c-1.707,0-3.413-0.853-3.413-2.56c0,0-14.507-27.307-69.12-27.307s-69.12,47.787-69.12,47.787
	C109.227,279.04,107.52,279.893,105.813,279.893z M277.333,197.12h-51.2c-11.947,0-21.333-9.387-21.333-21.333v-51.2
	c0-11.947,9.387-21.333,21.333-21.333h51.2c11.947,0,21.333,9.387,21.333,21.333v51.2C298.667,187.733,289.28,197.12,277.333,197.12
	z M226.133,111.787c-6.827,0-12.8,5.973-12.8,12.8v51.2c0,6.827,5.973,12.8,12.8,12.8h51.2c6.827,0,12.8-5.973,12.8-12.8v-51.2
	c0-6.827-5.973-12.8-12.8-12.8H226.133z"/>
</svg>